<mxfile host="app.diagrams.net" modified="2021-04-26T16:50:30.184Z" agent="5.0 (Windows NT 10.0; Win64; x64) AppleWebKit/537.36 (KHTML, like Gecko) Chrome/88.0.4324.150  Safari/537.36" etag="abIZ8zv1aLJenLU8K4So" version="14.6.6" type="github">
  <diagram id="wsVGVrC98OWO0jVeLgIM" name="Page-1">
    <mxGraphModel dx="2173" dy="659" grid="1" gridSize="10" guides="1" tooltips="1" connect="1" arrows="1" fold="1" page="1" pageScale="1" pageWidth="850" pageHeight="1100" math="0" shadow="0">
      <root>
        <mxCell id="0" />
        <mxCell id="1" parent="0" />
        <mxCell id="LciNZHoeIJGy0Ymbf-tn-1" style="edgeStyle=orthogonalEdgeStyle;rounded=0;orthogonalLoop=1;jettySize=auto;html=1;entryX=0.477;entryY=0.248;entryDx=0;entryDy=0;entryPerimeter=0;" edge="1" parent="1" source="zY8nQpZTPycgjdo67CNM-1" target="zY8nQpZTPycgjdo67CNM-2">
          <mxGeometry relative="1" as="geometry">
            <Array as="points">
              <mxPoint y="220" />
              <mxPoint y="220" />
            </Array>
          </mxGeometry>
        </mxCell>
        <mxCell id="zY8nQpZTPycgjdo67CNM-1" value="SD API" style="shape=umlLifeline;perimeter=lifelinePerimeter;whiteSpace=wrap;html=1;container=1;collapsible=0;recursiveResize=0;outlineConnect=0;gradientColor=#d5739d;fillColor=#e6d0de;strokeColor=#996185;" parent="1" vertex="1">
          <mxGeometry x="-92" y="92" width="100" height="620" as="geometry" />
        </mxCell>
        <mxCell id="LciNZHoeIJGy0Ymbf-tn-8" value="" style="html=1;points=[];perimeter=orthogonalPerimeter;" vertex="1" parent="zY8nQpZTPycgjdo67CNM-1">
          <mxGeometry x="45" y="120" width="10" height="120" as="geometry" />
        </mxCell>
        <mxCell id="LciNZHoeIJGy0Ymbf-tn-9" value="" style="html=1;points=[];perimeter=orthogonalPerimeter;" vertex="1" parent="zY8nQpZTPycgjdo67CNM-1">
          <mxGeometry x="45" y="258" width="10" height="312" as="geometry" />
        </mxCell>
        <mxCell id="LciNZHoeIJGy0Ymbf-tn-2" style="edgeStyle=orthogonalEdgeStyle;rounded=0;orthogonalLoop=1;jettySize=auto;html=1;" edge="1" parent="1">
          <mxGeometry relative="1" as="geometry">
            <mxPoint x="127.5" y="244" as="sourcePoint" />
            <mxPoint x="289.5" y="243" as="targetPoint" />
            <Array as="points">
              <mxPoint x="128" y="243" />
            </Array>
          </mxGeometry>
        </mxCell>
        <mxCell id="zY8nQpZTPycgjdo67CNM-2" value="SD Business Layer" style="shape=umlLifeline;perimeter=lifelinePerimeter;whiteSpace=wrap;html=1;container=1;collapsible=0;recursiveResize=0;outlineConnect=0;gradientColor=#d5739d;fillColor=#e6d0de;strokeColor=#996185;" parent="1" vertex="1">
          <mxGeometry x="78" y="92" width="100" height="518" as="geometry" />
        </mxCell>
        <mxCell id="LciNZHoeIJGy0Ymbf-tn-10" value="" style="html=1;points=[];perimeter=orthogonalPerimeter;" vertex="1" parent="zY8nQpZTPycgjdo67CNM-2">
          <mxGeometry x="45" y="121" width="10" height="99" as="geometry" />
        </mxCell>
        <mxCell id="zY8nQpZTPycgjdo67CNM-3" value="SD EventOrchestrator" style="shape=umlLifeline;perimeter=lifelinePerimeter;whiteSpace=wrap;html=1;container=1;collapsible=0;recursiveResize=0;outlineConnect=0;gradientColor=#7ea6e0;fillColor=#dae8fc;strokeColor=#6c8ebf;" parent="1" vertex="1">
          <mxGeometry x="400" y="92" width="110" height="508" as="geometry" />
        </mxCell>
        <mxCell id="LciNZHoeIJGy0Ymbf-tn-13" value="" style="html=1;points=[];perimeter=orthogonalPerimeter;" vertex="1" parent="zY8nQpZTPycgjdo67CNM-3">
          <mxGeometry x="50" y="256" width="10" height="82" as="geometry" />
        </mxCell>
        <mxCell id="zY8nQpZTPycgjdo67CNM-4" value="Event Publisher/Splitter" style="shape=umlLifeline;perimeter=lifelinePerimeter;whiteSpace=wrap;html=1;container=1;collapsible=0;recursiveResize=0;outlineConnect=0;gradientColor=#7ea6e0;fillColor=#dae8fc;strokeColor=#6c8ebf;" parent="1" vertex="1">
          <mxGeometry x="570" y="90" width="110" height="510" as="geometry" />
        </mxCell>
        <mxCell id="LciNZHoeIJGy0Ymbf-tn-14" value="" style="html=1;points=[];perimeter=orthogonalPerimeter;" vertex="1" parent="zY8nQpZTPycgjdo67CNM-4">
          <mxGeometry x="50" y="280" width="10" height="82" as="geometry" />
        </mxCell>
        <mxCell id="zY8nQpZTPycgjdo67CNM-5" value="PubSub" style="shape=umlLifeline;perimeter=lifelinePerimeter;whiteSpace=wrap;html=1;container=1;collapsible=0;recursiveResize=0;outlineConnect=0;gradientColor=#ffd966;fillColor=#fff2cc;strokeColor=#d6b656;" parent="1" vertex="1">
          <mxGeometry x="744" y="89" width="110" height="511" as="geometry" />
        </mxCell>
        <mxCell id="zY8nQpZTPycgjdo67CNM-6" value="ConnectEventTransformer" style="shape=umlLifeline;perimeter=lifelinePerimeter;whiteSpace=wrap;html=1;container=1;collapsible=0;recursiveResize=0;outlineConnect=0;gradientColor=#7ea6e0;fillColor=#dae8fc;strokeColor=#6c8ebf;" parent="1" vertex="1">
          <mxGeometry x="1260" y="89" width="150" height="511" as="geometry" />
        </mxCell>
        <mxCell id="zY8nQpZTPycgjdo67CNM-7" value="ConnectSystems" style="shape=umlLifeline;perimeter=lifelinePerimeter;whiteSpace=wrap;html=1;container=1;collapsible=0;recursiveResize=0;outlineConnect=0;gradientColor=#97d077;fillColor=#d5e8d4;strokeColor=#82b366;" parent="1" vertex="1">
          <mxGeometry x="1467" y="88" width="150" height="502" as="geometry" />
        </mxCell>
        <mxCell id="LciNZHoeIJGy0Ymbf-tn-3" style="edgeStyle=orthogonalEdgeStyle;rounded=0;orthogonalLoop=1;jettySize=auto;html=1;dashed=1;" edge="1" parent="1">
          <mxGeometry relative="1" as="geometry">
            <mxPoint x="289.5" y="279" as="sourcePoint" />
            <mxPoint x="127.5" y="279" as="targetPoint" />
            <Array as="points">
              <mxPoint x="250" y="280" />
              <mxPoint x="250" y="280" />
            </Array>
          </mxGeometry>
        </mxCell>
        <mxCell id="zY8nQpZTPycgjdo67CNM-8" value="M5 DB" style="shape=umlLifeline;perimeter=lifelinePerimeter;whiteSpace=wrap;html=1;container=1;collapsible=0;recursiveResize=0;outlineConnect=0;gradientColor=#ffd966;fillColor=#fff2cc;strokeColor=#d6b656;" parent="1" vertex="1">
          <mxGeometry x="240" y="90" width="100" height="520" as="geometry" />
        </mxCell>
        <mxCell id="W97xWJwRIzDxVlKYJ5EZ-1" value="PUT /tenants/{tenantId}" style="edgeStyle=orthogonalEdgeStyle;rounded=0;orthogonalLoop=1;jettySize=auto;html=1;entryX=0.471;entryY=0.153;entryDx=0;entryDy=0;entryPerimeter=0;" parent="1" source="zY8nQpZTPycgjdo67CNM-9" target="zY8nQpZTPycgjdo67CNM-1" edge="1">
          <mxGeometry relative="1" as="geometry" />
        </mxCell>
        <mxCell id="zY8nQpZTPycgjdo67CNM-9" value="Actor" style="shape=umlActor;verticalLabelPosition=bottom;verticalAlign=top;html=1;" parent="1" vertex="1">
          <mxGeometry x="-240" y="140" width="30" height="60" as="geometry" />
        </mxCell>
        <mxCell id="LciNZHoeIJGy0Ymbf-tn-4" style="edgeStyle=orthogonalEdgeStyle;rounded=0;orthogonalLoop=1;jettySize=auto;html=1;dashed=1;" edge="1" parent="1">
          <mxGeometry relative="1" as="geometry">
            <mxPoint x="122" y="300" as="sourcePoint" />
            <mxPoint x="-40" y="300" as="targetPoint" />
            <Array as="points">
              <mxPoint x="82.5" y="301" />
              <mxPoint x="82.5" y="301" />
            </Array>
          </mxGeometry>
        </mxCell>
        <mxCell id="LciNZHoeIJGy0Ymbf-tn-5" style="edgeStyle=orthogonalEdgeStyle;rounded=0;orthogonalLoop=1;jettySize=auto;html=1;" edge="1" parent="1" target="zY8nQpZTPycgjdo67CNM-3">
          <mxGeometry relative="1" as="geometry">
            <mxPoint x="-40" y="360.0039999999999" as="sourcePoint" />
            <mxPoint x="128.19999999999982" y="360.0039999999999" as="targetPoint" />
            <Array as="points">
              <mxPoint x="340" y="360" />
              <mxPoint x="340" y="360" />
            </Array>
          </mxGeometry>
        </mxCell>
        <mxCell id="LciNZHoeIJGy0Ymbf-tn-6" style="edgeStyle=orthogonalEdgeStyle;rounded=0;orthogonalLoop=1;jettySize=auto;html=1;" edge="1" parent="1">
          <mxGeometry relative="1" as="geometry">
            <mxPoint x="460" y="383" as="sourcePoint" />
            <mxPoint x="622" y="382" as="targetPoint" />
            <Array as="points">
              <mxPoint x="460.5" y="382" />
            </Array>
          </mxGeometry>
        </mxCell>
        <mxCell id="LciNZHoeIJGy0Ymbf-tn-15" style="edgeStyle=orthogonalEdgeStyle;rounded=0;orthogonalLoop=1;jettySize=auto;html=1;" edge="1" parent="1" target="zY8nQpZTPycgjdo67CNM-5">
          <mxGeometry relative="1" as="geometry">
            <mxPoint x="630" y="415" as="sourcePoint" />
            <mxPoint x="750" y="390" as="targetPoint" />
            <Array as="points">
              <mxPoint x="630" y="394" />
            </Array>
          </mxGeometry>
        </mxCell>
        <mxCell id="LciNZHoeIJGy0Ymbf-tn-17" value="Tenant_Events_&lt;br&gt;Topic" style="shape=umlLifeline;perimeter=lifelinePerimeter;whiteSpace=wrap;html=1;container=1;collapsible=0;recursiveResize=0;outlineConnect=0;gradientColor=#ffd966;fillColor=#fff2cc;strokeColor=#d6b656;" vertex="1" parent="1">
          <mxGeometry x="920" y="89" width="110" height="511" as="geometry" />
        </mxCell>
        <mxCell id="LciNZHoeIJGy0Ymbf-tn-18" value="Connect_Events_&lt;br&gt;Topic" style="shape=umlLifeline;perimeter=lifelinePerimeter;whiteSpace=wrap;html=1;container=1;collapsible=0;recursiveResize=0;outlineConnect=0;gradientColor=#ffd966;fillColor=#fff2cc;strokeColor=#d6b656;" vertex="1" parent="1">
          <mxGeometry x="1090" y="89" width="110" height="511" as="geometry" />
        </mxCell>
      </root>
    </mxGraphModel>
  </diagram>
</mxfile>
